M48
; DRILL file {KiCad (5.99.0-11444-g3c721c55de)} date Sun Oct  3 12:02:12 2021
; FORMAT={-:-/ absolute / metric / decimal}
; #@! TF.CreationDate,2021-10-03T12:02:12-03:00
; #@! TF.GenerationSoftware,Kicad,Pcbnew,(5.99.0-11444-g3c721c55de)
; #@! TF.FileFunction,Plated,1,2,PTH
FMAT,2
METRIC
; #@! TA.AperFunction,Plated,PTH,ViaDrill
T1C0.300
; #@! TA.AperFunction,Plated,PTH,ComponentDrill
T2C0.600
; #@! TA.AperFunction,Plated,PTH,ComponentDrill
T3C1.000
%
G90
G05
T1
X9.246Y-11.735
X27.33Y-30.429
X29.489Y-32.334
X29.693Y-9.182
X29.718Y-11.201
X30.48Y-15.182
X30.643Y-7.182
X31.133Y-9.119
X36.373Y-29.616
X38.456Y-14.173
X39.243Y-28.6
X39.268Y-17.17
X39.599Y-14.478
X39.649Y-26.086
X40.513Y-12.497
X41.986Y-29.439
X42.494Y-14.148
X43.383Y-19.507
X43.688Y-17.958
X44.501Y-13.081
X45.952Y-24.054
X45.999Y-44.653
X46.914Y-13.03
X48.651Y-13.114
X49.073Y-24.79
X49.45Y-13.14
X50.292Y-29.464
X50.343Y-13.31
X50.646Y-25.224
X50.775Y-32.055
X51.079Y-11.506
X51.13Y-42.443
X51.206Y-30.429
X51.384Y-31.344
X53.391Y-22.631
X53.442Y-8.001
X54.229Y-15.011
X54.331Y-40.234
X54.915Y-10.262
X55.028Y-15.044
X55.441Y-15.773
X56.24Y-15.806
X56.921Y-18.212
X57.039Y-15.796
X57.091Y-21.711
X57.152Y-20.767
X57.201Y-22.733
X57.404Y-11.43
X57.633Y-9.144
X58.354Y-13.604
X58.572Y-5.639
X59.128Y-14.526
T3
X8.839Y-3.172
X10.786Y-23.71
X13.326Y-23.71
X15.866Y-23.71
X18.406Y-23.71
X33.468Y-11.582
X33.468Y-14.122
X33.468Y-16.662
X33.468Y-19.202
X33.468Y-21.742
X36.008Y-11.582
X36.008Y-14.122
X36.008Y-16.662
X36.008Y-19.202
X36.008Y-21.742
T2
X43.508Y-2.951G85X43.508Y-2.351
G05
X43.508Y-7.381G85X43.508Y-6.281
G05
X52.148Y-2.951G85X52.148Y-2.351
G05
X52.148Y-7.381G85X52.148Y-6.281
G05
T0
M30
