%FSLAX45Y45*%
G04 Gerber Fmt 4.5, Leading zero omitted, Abs format (unit mm)*
G04 Created by KiCad (PCBNEW (5.99.0-11444-g3c721c55de)) date 2021-10-03 12:02:14*
%MOMM*%
%LPD*%
G01*
G04 APERTURE LIST*
%TA.AperFunction,Profile*%
%ADD10C,0.100000*%
%TD*%
%ADD11C,0.200000*%
%ADD12C,0.065000*%
%ADD13C,0.100000*%
%ADD14C,0.320000*%
G04 APERTURE END LIST*
D10*
X5700000Y-5000000D02*
X300000Y-5000000D01*
X6000000Y-300000D02*
X6000000Y-4700000D01*
X300000Y0D02*
X5700000Y0D01*
X0Y-4700000D02*
X0Y-300000D01*
X0Y-4700000D02*
G75*
G03*
X300000Y-5000000I300000J0D01*
G01*
X5700000Y-5000000D02*
G75*
G03*
X6000000Y-4700000I0J300000D01*
G01*
X6000000Y-300000D02*
G75*
G03*
X5700000Y0I-300000J0D01*
G01*
X300000Y0D02*
G75*
G03*
X0Y-300000I0J-300000D01*
G01*
D11*
D12*
X4461320Y-597580D02*
X4526320Y-662580D01*
X4526320Y-597580D02*
X4461320Y-662580D01*
X5039320Y-597580D02*
X5104320Y-662580D01*
X5104320Y-597580D02*
X5039320Y-662580D01*
D13*
X5550880Y-3718360D02*
G75*
G03*
X5550880Y-3718360I-50000J0D01*
G01*
X5550880Y-4516360D02*
G75*
G03*
X5550880Y-4516360I-50000J0D01*
G01*
D14*
X350000Y-190000D02*
X350000Y-510000D01*
X190000Y-350000D02*
X510000Y-350000D01*
X350000Y-4490000D02*
X350000Y-4810000D01*
X190000Y-4650000D02*
X510000Y-4650000D01*
X5650000Y-190000D02*
X5650000Y-510000D01*
X5490000Y-350000D02*
X5810000Y-350000D01*
D11*
X242619Y-5325476D02*
X242619Y-5125476D01*
X290238Y-5125476D01*
X318810Y-5135000D01*
X337857Y-5154048D01*
X347381Y-5173095D01*
X356905Y-5211190D01*
X356905Y-5239762D01*
X347381Y-5277857D01*
X337857Y-5296905D01*
X318810Y-5315952D01*
X290238Y-5325476D01*
X242619Y-5325476D01*
X442619Y-5325476D02*
X442619Y-5192143D01*
X442619Y-5230238D02*
X452143Y-5211190D01*
X461667Y-5201667D01*
X480714Y-5192143D01*
X499762Y-5192143D01*
X566429Y-5325476D02*
X566429Y-5192143D01*
X566429Y-5125476D02*
X556905Y-5135000D01*
X566429Y-5144524D01*
X575952Y-5135000D01*
X566429Y-5125476D01*
X566429Y-5144524D01*
X690238Y-5325476D02*
X671190Y-5315952D01*
X661667Y-5296905D01*
X661667Y-5125476D01*
X795000Y-5325476D02*
X775952Y-5315952D01*
X766428Y-5296905D01*
X766428Y-5125476D01*
X1023571Y-5325476D02*
X1023571Y-5125476D01*
X1090238Y-5268333D01*
X1156905Y-5125476D01*
X1156905Y-5325476D01*
X1337857Y-5325476D02*
X1337857Y-5220714D01*
X1328333Y-5201667D01*
X1309286Y-5192143D01*
X1271190Y-5192143D01*
X1252143Y-5201667D01*
X1337857Y-5315952D02*
X1318810Y-5325476D01*
X1271190Y-5325476D01*
X1252143Y-5315952D01*
X1242619Y-5296905D01*
X1242619Y-5277857D01*
X1252143Y-5258810D01*
X1271190Y-5249286D01*
X1318810Y-5249286D01*
X1337857Y-5239762D01*
X1433095Y-5192143D02*
X1433095Y-5392143D01*
X1433095Y-5201667D02*
X1452143Y-5192143D01*
X1490238Y-5192143D01*
X1509286Y-5201667D01*
X1518809Y-5211190D01*
X1528333Y-5230238D01*
X1528333Y-5287381D01*
X1518809Y-5306429D01*
X1509286Y-5315952D01*
X1490238Y-5325476D01*
X1452143Y-5325476D01*
X1433095Y-5315952D01*
X1614048Y-5306429D02*
X1623571Y-5315952D01*
X1614048Y-5325476D01*
X1604524Y-5315952D01*
X1614048Y-5306429D01*
X1614048Y-5325476D01*
X1614048Y-5201667D02*
X1623571Y-5211190D01*
X1614048Y-5220714D01*
X1604524Y-5211190D01*
X1614048Y-5201667D01*
X1614048Y-5220714D01*
D12*
X-80000Y-5622500D02*
X-15000Y-5687500D01*
X-15000Y-5622500D02*
X-80000Y-5687500D01*
D11*
X280714Y-5545476D02*
X299762Y-5545476D01*
X318810Y-5555000D01*
X328333Y-5564524D01*
X337857Y-5583571D01*
X347381Y-5621667D01*
X347381Y-5669286D01*
X337857Y-5707381D01*
X328333Y-5726428D01*
X318810Y-5735952D01*
X299762Y-5745476D01*
X280714Y-5745476D01*
X261667Y-5735952D01*
X252143Y-5726428D01*
X242619Y-5707381D01*
X233095Y-5669286D01*
X233095Y-5621667D01*
X242619Y-5583571D01*
X252143Y-5564524D01*
X261667Y-5555000D01*
X280714Y-5545476D01*
X433095Y-5726428D02*
X442619Y-5735952D01*
X433095Y-5745476D01*
X423571Y-5735952D01*
X433095Y-5726428D01*
X433095Y-5745476D01*
X614048Y-5545476D02*
X575952Y-5545476D01*
X556905Y-5555000D01*
X547381Y-5564524D01*
X528333Y-5593095D01*
X518809Y-5631190D01*
X518809Y-5707381D01*
X528333Y-5726428D01*
X537857Y-5735952D01*
X556905Y-5745476D01*
X595000Y-5745476D01*
X614048Y-5735952D01*
X623571Y-5726428D01*
X633095Y-5707381D01*
X633095Y-5659762D01*
X623571Y-5640714D01*
X614048Y-5631190D01*
X595000Y-5621667D01*
X556905Y-5621667D01*
X537857Y-5631190D01*
X528333Y-5640714D01*
X518809Y-5659762D01*
X814048Y-5545476D02*
X718809Y-5545476D01*
X709286Y-5640714D01*
X718809Y-5631190D01*
X737857Y-5621667D01*
X785476Y-5621667D01*
X804524Y-5631190D01*
X814048Y-5640714D01*
X823571Y-5659762D01*
X823571Y-5707381D01*
X814048Y-5726428D01*
X804524Y-5735952D01*
X785476Y-5745476D01*
X737857Y-5745476D01*
X718809Y-5735952D01*
X709286Y-5726428D01*
X947381Y-5545476D02*
X966428Y-5545476D01*
X985476Y-5555000D01*
X995000Y-5564524D01*
X1004524Y-5583571D01*
X1014048Y-5621667D01*
X1014048Y-5669286D01*
X1004524Y-5707381D01*
X995000Y-5726428D01*
X985476Y-5735952D01*
X966428Y-5745476D01*
X947381Y-5745476D01*
X928333Y-5735952D01*
X918809Y-5726428D01*
X909286Y-5707381D01*
X899762Y-5669286D01*
X899762Y-5621667D01*
X909286Y-5583571D01*
X918809Y-5564524D01*
X928333Y-5555000D01*
X947381Y-5545476D01*
X1099762Y-5745476D02*
X1099762Y-5612143D01*
X1099762Y-5631190D02*
X1109286Y-5621667D01*
X1128333Y-5612143D01*
X1156905Y-5612143D01*
X1175952Y-5621667D01*
X1185476Y-5640714D01*
X1185476Y-5745476D01*
X1185476Y-5640714D02*
X1195000Y-5621667D01*
X1214048Y-5612143D01*
X1242619Y-5612143D01*
X1261667Y-5621667D01*
X1271190Y-5640714D01*
X1271190Y-5745476D01*
X1366429Y-5745476D02*
X1366429Y-5612143D01*
X1366429Y-5631190D02*
X1375952Y-5621667D01*
X1395000Y-5612143D01*
X1423571Y-5612143D01*
X1442619Y-5621667D01*
X1452143Y-5640714D01*
X1452143Y-5745476D01*
X1452143Y-5640714D02*
X1461667Y-5621667D01*
X1480714Y-5612143D01*
X1509286Y-5612143D01*
X1528333Y-5621667D01*
X1537857Y-5640714D01*
X1537857Y-5745476D01*
X1928333Y-5535952D02*
X1756905Y-5793095D01*
X2185476Y-5545476D02*
X2204524Y-5545476D01*
X2223571Y-5555000D01*
X2233095Y-5564524D01*
X2242619Y-5583571D01*
X2252143Y-5621667D01*
X2252143Y-5669286D01*
X2242619Y-5707381D01*
X2233095Y-5726428D01*
X2223571Y-5735952D01*
X2204524Y-5745476D01*
X2185476Y-5745476D01*
X2166429Y-5735952D01*
X2156905Y-5726428D01*
X2147381Y-5707381D01*
X2137857Y-5669286D01*
X2137857Y-5621667D01*
X2147381Y-5583571D01*
X2156905Y-5564524D01*
X2166429Y-5555000D01*
X2185476Y-5545476D01*
X2337857Y-5726428D02*
X2347381Y-5735952D01*
X2337857Y-5745476D01*
X2328333Y-5735952D01*
X2337857Y-5726428D01*
X2337857Y-5745476D01*
X2471190Y-5545476D02*
X2490238Y-5545476D01*
X2509286Y-5555000D01*
X2518810Y-5564524D01*
X2528333Y-5583571D01*
X2537857Y-5621667D01*
X2537857Y-5669286D01*
X2528333Y-5707381D01*
X2518810Y-5726428D01*
X2509286Y-5735952D01*
X2490238Y-5745476D01*
X2471190Y-5745476D01*
X2452143Y-5735952D01*
X2442619Y-5726428D01*
X2433095Y-5707381D01*
X2423571Y-5669286D01*
X2423571Y-5621667D01*
X2433095Y-5583571D01*
X2442619Y-5564524D01*
X2452143Y-5555000D01*
X2471190Y-5545476D01*
X2614048Y-5564524D02*
X2623571Y-5555000D01*
X2642619Y-5545476D01*
X2690238Y-5545476D01*
X2709286Y-5555000D01*
X2718810Y-5564524D01*
X2728333Y-5583571D01*
X2728333Y-5602619D01*
X2718810Y-5631190D01*
X2604524Y-5745476D01*
X2728333Y-5745476D01*
X2909286Y-5545476D02*
X2814048Y-5545476D01*
X2804524Y-5640714D01*
X2814048Y-5631190D01*
X2833095Y-5621667D01*
X2880714Y-5621667D01*
X2899762Y-5631190D01*
X2909286Y-5640714D01*
X2918809Y-5659762D01*
X2918809Y-5707381D01*
X2909286Y-5726428D01*
X2899762Y-5735952D01*
X2880714Y-5745476D01*
X2833095Y-5745476D01*
X2814048Y-5735952D01*
X2804524Y-5726428D01*
X3090238Y-5545476D02*
X3052143Y-5545476D01*
X3033095Y-5555000D01*
X3023571Y-5564524D01*
X3004524Y-5593095D01*
X2995000Y-5631190D01*
X2995000Y-5707381D01*
X3004524Y-5726428D01*
X3014048Y-5735952D01*
X3033095Y-5745476D01*
X3071190Y-5745476D01*
X3090238Y-5735952D01*
X3099762Y-5726428D01*
X3109286Y-5707381D01*
X3109286Y-5659762D01*
X3099762Y-5640714D01*
X3090238Y-5631190D01*
X3071190Y-5621667D01*
X3033095Y-5621667D01*
X3014048Y-5631190D01*
X3004524Y-5640714D01*
X2995000Y-5659762D01*
X3185476Y-5545476D02*
X3185476Y-5583571D01*
X3261667Y-5545476D02*
X3261667Y-5583571D01*
X3556905Y-5821667D02*
X3547381Y-5812143D01*
X3528333Y-5783571D01*
X3518809Y-5764524D01*
X3509286Y-5735952D01*
X3499762Y-5688333D01*
X3499762Y-5650238D01*
X3509286Y-5602619D01*
X3518809Y-5574048D01*
X3528333Y-5555000D01*
X3547381Y-5526429D01*
X3556905Y-5516905D01*
X3623571Y-5564524D02*
X3633095Y-5555000D01*
X3652143Y-5545476D01*
X3699762Y-5545476D01*
X3718809Y-5555000D01*
X3728333Y-5564524D01*
X3737857Y-5583571D01*
X3737857Y-5602619D01*
X3728333Y-5631190D01*
X3614048Y-5745476D01*
X3737857Y-5745476D01*
X3975952Y-5745476D02*
X3975952Y-5545476D01*
X4061667Y-5745476D02*
X4061667Y-5640714D01*
X4052143Y-5621667D01*
X4033095Y-5612143D01*
X4004524Y-5612143D01*
X3985476Y-5621667D01*
X3975952Y-5631190D01*
X4185476Y-5745476D02*
X4166428Y-5735952D01*
X4156905Y-5726428D01*
X4147381Y-5707381D01*
X4147381Y-5650238D01*
X4156905Y-5631190D01*
X4166428Y-5621667D01*
X4185476Y-5612143D01*
X4214048Y-5612143D01*
X4233095Y-5621667D01*
X4242619Y-5631190D01*
X4252143Y-5650238D01*
X4252143Y-5707381D01*
X4242619Y-5726428D01*
X4233095Y-5735952D01*
X4214048Y-5745476D01*
X4185476Y-5745476D01*
X4366429Y-5745476D02*
X4347381Y-5735952D01*
X4337857Y-5716905D01*
X4337857Y-5545476D01*
X4518810Y-5735952D02*
X4499762Y-5745476D01*
X4461667Y-5745476D01*
X4442619Y-5735952D01*
X4433095Y-5716905D01*
X4433095Y-5640714D01*
X4442619Y-5621667D01*
X4461667Y-5612143D01*
X4499762Y-5612143D01*
X4518810Y-5621667D01*
X4528333Y-5640714D01*
X4528333Y-5659762D01*
X4433095Y-5678809D01*
X4604524Y-5735952D02*
X4623571Y-5745476D01*
X4661667Y-5745476D01*
X4680714Y-5735952D01*
X4690238Y-5716905D01*
X4690238Y-5707381D01*
X4680714Y-5688333D01*
X4661667Y-5678809D01*
X4633095Y-5678809D01*
X4614048Y-5669286D01*
X4604524Y-5650238D01*
X4604524Y-5640714D01*
X4614048Y-5621667D01*
X4633095Y-5612143D01*
X4661667Y-5612143D01*
X4680714Y-5621667D01*
X4756905Y-5821667D02*
X4766429Y-5812143D01*
X4785476Y-5783571D01*
X4795000Y-5764524D01*
X4804524Y-5735952D01*
X4814048Y-5688333D01*
X4814048Y-5650238D01*
X4804524Y-5602619D01*
X4795000Y-5574048D01*
X4785476Y-5555000D01*
X4766429Y-5526429D01*
X4756905Y-5516905D01*
X5118810Y-5821667D02*
X5109286Y-5812143D01*
X5090238Y-5783571D01*
X5080714Y-5764524D01*
X5071190Y-5735952D01*
X5061667Y-5688333D01*
X5061667Y-5650238D01*
X5071190Y-5602619D01*
X5080714Y-5574048D01*
X5090238Y-5555000D01*
X5109286Y-5526429D01*
X5118810Y-5516905D01*
X5195000Y-5612143D02*
X5195000Y-5745476D01*
X5195000Y-5631190D02*
X5204524Y-5621667D01*
X5223571Y-5612143D01*
X5252143Y-5612143D01*
X5271190Y-5621667D01*
X5280714Y-5640714D01*
X5280714Y-5745476D01*
X5404524Y-5745476D02*
X5385476Y-5735952D01*
X5375952Y-5726428D01*
X5366429Y-5707381D01*
X5366429Y-5650238D01*
X5375952Y-5631190D01*
X5385476Y-5621667D01*
X5404524Y-5612143D01*
X5433095Y-5612143D01*
X5452143Y-5621667D01*
X5461667Y-5631190D01*
X5471190Y-5650238D01*
X5471190Y-5707381D01*
X5461667Y-5726428D01*
X5452143Y-5735952D01*
X5433095Y-5745476D01*
X5404524Y-5745476D01*
X5528333Y-5612143D02*
X5604524Y-5612143D01*
X5556905Y-5545476D02*
X5556905Y-5716905D01*
X5566429Y-5735952D01*
X5585476Y-5745476D01*
X5604524Y-5745476D01*
X5823571Y-5612143D02*
X5823571Y-5812143D01*
X5823571Y-5621667D02*
X5842619Y-5612143D01*
X5880714Y-5612143D01*
X5899762Y-5621667D01*
X5909286Y-5631190D01*
X5918809Y-5650238D01*
X5918809Y-5707381D01*
X5909286Y-5726428D01*
X5899762Y-5735952D01*
X5880714Y-5745476D01*
X5842619Y-5745476D01*
X5823571Y-5735952D01*
X6033095Y-5745476D02*
X6014048Y-5735952D01*
X6004524Y-5716905D01*
X6004524Y-5545476D01*
X6195000Y-5745476D02*
X6195000Y-5640714D01*
X6185476Y-5621667D01*
X6166428Y-5612143D01*
X6128333Y-5612143D01*
X6109286Y-5621667D01*
X6195000Y-5735952D02*
X6175952Y-5745476D01*
X6128333Y-5745476D01*
X6109286Y-5735952D01*
X6099762Y-5716905D01*
X6099762Y-5697857D01*
X6109286Y-5678809D01*
X6128333Y-5669286D01*
X6175952Y-5669286D01*
X6195000Y-5659762D01*
X6261667Y-5612143D02*
X6337857Y-5612143D01*
X6290238Y-5545476D02*
X6290238Y-5716905D01*
X6299762Y-5735952D01*
X6318809Y-5745476D01*
X6337857Y-5745476D01*
X6480714Y-5735952D02*
X6461667Y-5745476D01*
X6423571Y-5745476D01*
X6404524Y-5735952D01*
X6395000Y-5716905D01*
X6395000Y-5640714D01*
X6404524Y-5621667D01*
X6423571Y-5612143D01*
X6461667Y-5612143D01*
X6480714Y-5621667D01*
X6490238Y-5640714D01*
X6490238Y-5659762D01*
X6395000Y-5678809D01*
X6661667Y-5745476D02*
X6661667Y-5545476D01*
X6661667Y-5735952D02*
X6642619Y-5745476D01*
X6604524Y-5745476D01*
X6585476Y-5735952D01*
X6575952Y-5726428D01*
X6566428Y-5707381D01*
X6566428Y-5650238D01*
X6575952Y-5631190D01*
X6585476Y-5621667D01*
X6604524Y-5612143D01*
X6642619Y-5612143D01*
X6661667Y-5621667D01*
X6737857Y-5821667D02*
X6747381Y-5812143D01*
X6766428Y-5783571D01*
X6775952Y-5764524D01*
X6785476Y-5735952D01*
X6795000Y-5688333D01*
X6795000Y-5650238D01*
X6785476Y-5602619D01*
X6775952Y-5574048D01*
X6766428Y-5555000D01*
X6747381Y-5526429D01*
X6737857Y-5516905D01*
D13*
X-15000Y-5919000D02*
G75*
G03*
X-15000Y-5919000I-50000J0D01*
G01*
D11*
X347381Y-6009476D02*
X233095Y-6009476D01*
X290238Y-6009476D02*
X290238Y-5809476D01*
X271190Y-5838048D01*
X252143Y-5857095D01*
X233095Y-5866619D01*
X433095Y-5990428D02*
X442619Y-5999952D01*
X433095Y-6009476D01*
X423571Y-5999952D01*
X433095Y-5990428D01*
X433095Y-6009476D01*
X566429Y-5809476D02*
X585476Y-5809476D01*
X604524Y-5819000D01*
X614048Y-5828524D01*
X623571Y-5847571D01*
X633095Y-5885667D01*
X633095Y-5933286D01*
X623571Y-5971381D01*
X614048Y-5990428D01*
X604524Y-5999952D01*
X585476Y-6009476D01*
X566429Y-6009476D01*
X547381Y-5999952D01*
X537857Y-5990428D01*
X528333Y-5971381D01*
X518809Y-5933286D01*
X518809Y-5885667D01*
X528333Y-5847571D01*
X537857Y-5828524D01*
X547381Y-5819000D01*
X566429Y-5809476D01*
X756905Y-5809476D02*
X775952Y-5809476D01*
X795000Y-5819000D01*
X804524Y-5828524D01*
X814048Y-5847571D01*
X823571Y-5885667D01*
X823571Y-5933286D01*
X814048Y-5971381D01*
X804524Y-5990428D01*
X795000Y-5999952D01*
X775952Y-6009476D01*
X756905Y-6009476D01*
X737857Y-5999952D01*
X728333Y-5990428D01*
X718809Y-5971381D01*
X709286Y-5933286D01*
X709286Y-5885667D01*
X718809Y-5847571D01*
X728333Y-5828524D01*
X737857Y-5819000D01*
X756905Y-5809476D01*
X947381Y-5809476D02*
X966428Y-5809476D01*
X985476Y-5819000D01*
X995000Y-5828524D01*
X1004524Y-5847571D01*
X1014048Y-5885667D01*
X1014048Y-5933286D01*
X1004524Y-5971381D01*
X995000Y-5990428D01*
X985476Y-5999952D01*
X966428Y-6009476D01*
X947381Y-6009476D01*
X928333Y-5999952D01*
X918809Y-5990428D01*
X909286Y-5971381D01*
X899762Y-5933286D01*
X899762Y-5885667D01*
X909286Y-5847571D01*
X918809Y-5828524D01*
X928333Y-5819000D01*
X947381Y-5809476D01*
X1099762Y-6009476D02*
X1099762Y-5876143D01*
X1099762Y-5895190D02*
X1109286Y-5885667D01*
X1128333Y-5876143D01*
X1156905Y-5876143D01*
X1175952Y-5885667D01*
X1185476Y-5904714D01*
X1185476Y-6009476D01*
X1185476Y-5904714D02*
X1195000Y-5885667D01*
X1214048Y-5876143D01*
X1242619Y-5876143D01*
X1261667Y-5885667D01*
X1271190Y-5904714D01*
X1271190Y-6009476D01*
X1366429Y-6009476D02*
X1366429Y-5876143D01*
X1366429Y-5895190D02*
X1375952Y-5885667D01*
X1395000Y-5876143D01*
X1423571Y-5876143D01*
X1442619Y-5885667D01*
X1452143Y-5904714D01*
X1452143Y-6009476D01*
X1452143Y-5904714D02*
X1461667Y-5885667D01*
X1480714Y-5876143D01*
X1509286Y-5876143D01*
X1528333Y-5885667D01*
X1537857Y-5904714D01*
X1537857Y-6009476D01*
X1928333Y-5799952D02*
X1756905Y-6057095D01*
X2185476Y-5809476D02*
X2204524Y-5809476D01*
X2223571Y-5819000D01*
X2233095Y-5828524D01*
X2242619Y-5847571D01*
X2252143Y-5885667D01*
X2252143Y-5933286D01*
X2242619Y-5971381D01*
X2233095Y-5990428D01*
X2223571Y-5999952D01*
X2204524Y-6009476D01*
X2185476Y-6009476D01*
X2166429Y-5999952D01*
X2156905Y-5990428D01*
X2147381Y-5971381D01*
X2137857Y-5933286D01*
X2137857Y-5885667D01*
X2147381Y-5847571D01*
X2156905Y-5828524D01*
X2166429Y-5819000D01*
X2185476Y-5809476D01*
X2337857Y-5990428D02*
X2347381Y-5999952D01*
X2337857Y-6009476D01*
X2328333Y-5999952D01*
X2337857Y-5990428D01*
X2337857Y-6009476D01*
X2471190Y-5809476D02*
X2490238Y-5809476D01*
X2509286Y-5819000D01*
X2518810Y-5828524D01*
X2528333Y-5847571D01*
X2537857Y-5885667D01*
X2537857Y-5933286D01*
X2528333Y-5971381D01*
X2518810Y-5990428D01*
X2509286Y-5999952D01*
X2490238Y-6009476D01*
X2471190Y-6009476D01*
X2452143Y-5999952D01*
X2442619Y-5990428D01*
X2433095Y-5971381D01*
X2423571Y-5933286D01*
X2423571Y-5885667D01*
X2433095Y-5847571D01*
X2442619Y-5828524D01*
X2452143Y-5819000D01*
X2471190Y-5809476D01*
X2604524Y-5809476D02*
X2728333Y-5809476D01*
X2661667Y-5885667D01*
X2690238Y-5885667D01*
X2709286Y-5895190D01*
X2718810Y-5904714D01*
X2728333Y-5923762D01*
X2728333Y-5971381D01*
X2718810Y-5990428D01*
X2709286Y-5999952D01*
X2690238Y-6009476D01*
X2633095Y-6009476D01*
X2614048Y-5999952D01*
X2604524Y-5990428D01*
X2823571Y-6009476D02*
X2861667Y-6009476D01*
X2880714Y-5999952D01*
X2890238Y-5990428D01*
X2909286Y-5961857D01*
X2918809Y-5923762D01*
X2918809Y-5847571D01*
X2909286Y-5828524D01*
X2899762Y-5819000D01*
X2880714Y-5809476D01*
X2842619Y-5809476D01*
X2823571Y-5819000D01*
X2814048Y-5828524D01*
X2804524Y-5847571D01*
X2804524Y-5895190D01*
X2814048Y-5914238D01*
X2823571Y-5923762D01*
X2842619Y-5933286D01*
X2880714Y-5933286D01*
X2899762Y-5923762D01*
X2909286Y-5914238D01*
X2918809Y-5895190D01*
X3090238Y-5876143D02*
X3090238Y-6009476D01*
X3042619Y-5799952D02*
X2995000Y-5942809D01*
X3118809Y-5942809D01*
X3185476Y-5809476D02*
X3185476Y-5847571D01*
X3261667Y-5809476D02*
X3261667Y-5847571D01*
X3556905Y-6085667D02*
X3547381Y-6076143D01*
X3528333Y-6047571D01*
X3518809Y-6028524D01*
X3509286Y-5999952D01*
X3499762Y-5952333D01*
X3499762Y-5914238D01*
X3509286Y-5866619D01*
X3518809Y-5838048D01*
X3528333Y-5819000D01*
X3547381Y-5790428D01*
X3556905Y-5780905D01*
X3623571Y-5828524D02*
X3633095Y-5819000D01*
X3652143Y-5809476D01*
X3699762Y-5809476D01*
X3718809Y-5819000D01*
X3728333Y-5828524D01*
X3737857Y-5847571D01*
X3737857Y-5866619D01*
X3728333Y-5895190D01*
X3614048Y-6009476D01*
X3737857Y-6009476D01*
X3975952Y-6009476D02*
X3975952Y-5809476D01*
X4061667Y-6009476D02*
X4061667Y-5904714D01*
X4052143Y-5885667D01*
X4033095Y-5876143D01*
X4004524Y-5876143D01*
X3985476Y-5885667D01*
X3975952Y-5895190D01*
X4185476Y-6009476D02*
X4166428Y-5999952D01*
X4156905Y-5990428D01*
X4147381Y-5971381D01*
X4147381Y-5914238D01*
X4156905Y-5895190D01*
X4166428Y-5885667D01*
X4185476Y-5876143D01*
X4214048Y-5876143D01*
X4233095Y-5885667D01*
X4242619Y-5895190D01*
X4252143Y-5914238D01*
X4252143Y-5971381D01*
X4242619Y-5990428D01*
X4233095Y-5999952D01*
X4214048Y-6009476D01*
X4185476Y-6009476D01*
X4366429Y-6009476D02*
X4347381Y-5999952D01*
X4337857Y-5980905D01*
X4337857Y-5809476D01*
X4518810Y-5999952D02*
X4499762Y-6009476D01*
X4461667Y-6009476D01*
X4442619Y-5999952D01*
X4433095Y-5980905D01*
X4433095Y-5904714D01*
X4442619Y-5885667D01*
X4461667Y-5876143D01*
X4499762Y-5876143D01*
X4518810Y-5885667D01*
X4528333Y-5904714D01*
X4528333Y-5923762D01*
X4433095Y-5942809D01*
X4604524Y-5999952D02*
X4623571Y-6009476D01*
X4661667Y-6009476D01*
X4680714Y-5999952D01*
X4690238Y-5980905D01*
X4690238Y-5971381D01*
X4680714Y-5952333D01*
X4661667Y-5942809D01*
X4633095Y-5942809D01*
X4614048Y-5933286D01*
X4604524Y-5914238D01*
X4604524Y-5904714D01*
X4614048Y-5885667D01*
X4633095Y-5876143D01*
X4661667Y-5876143D01*
X4680714Y-5885667D01*
X4756905Y-6085667D02*
X4766429Y-6076143D01*
X4785476Y-6047571D01*
X4795000Y-6028524D01*
X4804524Y-5999952D01*
X4814048Y-5952333D01*
X4814048Y-5914238D01*
X4804524Y-5866619D01*
X4795000Y-5838048D01*
X4785476Y-5819000D01*
X4766429Y-5790428D01*
X4756905Y-5780905D01*
X5118810Y-6085667D02*
X5109286Y-6076143D01*
X5090238Y-6047571D01*
X5080714Y-6028524D01*
X5071190Y-5999952D01*
X5061667Y-5952333D01*
X5061667Y-5914238D01*
X5071190Y-5866619D01*
X5080714Y-5838048D01*
X5090238Y-5819000D01*
X5109286Y-5790428D01*
X5118810Y-5780905D01*
X5195000Y-5876143D02*
X5195000Y-6009476D01*
X5195000Y-5895190D02*
X5204524Y-5885667D01*
X5223571Y-5876143D01*
X5252143Y-5876143D01*
X5271190Y-5885667D01*
X5280714Y-5904714D01*
X5280714Y-6009476D01*
X5404524Y-6009476D02*
X5385476Y-5999952D01*
X5375952Y-5990428D01*
X5366429Y-5971381D01*
X5366429Y-5914238D01*
X5375952Y-5895190D01*
X5385476Y-5885667D01*
X5404524Y-5876143D01*
X5433095Y-5876143D01*
X5452143Y-5885667D01*
X5461667Y-5895190D01*
X5471190Y-5914238D01*
X5471190Y-5971381D01*
X5461667Y-5990428D01*
X5452143Y-5999952D01*
X5433095Y-6009476D01*
X5404524Y-6009476D01*
X5528333Y-5876143D02*
X5604524Y-5876143D01*
X5556905Y-5809476D02*
X5556905Y-5980905D01*
X5566429Y-5999952D01*
X5585476Y-6009476D01*
X5604524Y-6009476D01*
X5823571Y-5876143D02*
X5823571Y-6076143D01*
X5823571Y-5885667D02*
X5842619Y-5876143D01*
X5880714Y-5876143D01*
X5899762Y-5885667D01*
X5909286Y-5895190D01*
X5918809Y-5914238D01*
X5918809Y-5971381D01*
X5909286Y-5990428D01*
X5899762Y-5999952D01*
X5880714Y-6009476D01*
X5842619Y-6009476D01*
X5823571Y-5999952D01*
X6033095Y-6009476D02*
X6014048Y-5999952D01*
X6004524Y-5980905D01*
X6004524Y-5809476D01*
X6195000Y-6009476D02*
X6195000Y-5904714D01*
X6185476Y-5885667D01*
X6166428Y-5876143D01*
X6128333Y-5876143D01*
X6109286Y-5885667D01*
X6195000Y-5999952D02*
X6175952Y-6009476D01*
X6128333Y-6009476D01*
X6109286Y-5999952D01*
X6099762Y-5980905D01*
X6099762Y-5961857D01*
X6109286Y-5942809D01*
X6128333Y-5933286D01*
X6175952Y-5933286D01*
X6195000Y-5923762D01*
X6261667Y-5876143D02*
X6337857Y-5876143D01*
X6290238Y-5809476D02*
X6290238Y-5980905D01*
X6299762Y-5999952D01*
X6318809Y-6009476D01*
X6337857Y-6009476D01*
X6480714Y-5999952D02*
X6461667Y-6009476D01*
X6423571Y-6009476D01*
X6404524Y-5999952D01*
X6395000Y-5980905D01*
X6395000Y-5904714D01*
X6404524Y-5885667D01*
X6423571Y-5876143D01*
X6461667Y-5876143D01*
X6480714Y-5885667D01*
X6490238Y-5904714D01*
X6490238Y-5923762D01*
X6395000Y-5942809D01*
X6661667Y-6009476D02*
X6661667Y-5809476D01*
X6661667Y-5999952D02*
X6642619Y-6009476D01*
X6604524Y-6009476D01*
X6585476Y-5999952D01*
X6575952Y-5990428D01*
X6566428Y-5971381D01*
X6566428Y-5914238D01*
X6575952Y-5895190D01*
X6585476Y-5885667D01*
X6604524Y-5876143D01*
X6642619Y-5876143D01*
X6661667Y-5885667D01*
X6737857Y-6085667D02*
X6747381Y-6076143D01*
X6766428Y-6047571D01*
X6775952Y-6028524D01*
X6785476Y-5999952D01*
X6795000Y-5952333D01*
X6795000Y-5914238D01*
X6785476Y-5866619D01*
X6775952Y-5838048D01*
X6766428Y-5819000D01*
X6747381Y-5790428D01*
X6737857Y-5780905D01*
X-115000Y-6083000D02*
X-115000Y-6283000D01*
X-215000Y-6183000D02*
X-15000Y-6183000D01*
X223571Y-6073476D02*
X347381Y-6073476D01*
X280714Y-6149667D01*
X309286Y-6149667D01*
X328333Y-6159190D01*
X337857Y-6168714D01*
X347381Y-6187762D01*
X347381Y-6235381D01*
X337857Y-6254428D01*
X328333Y-6263952D01*
X309286Y-6273476D01*
X252143Y-6273476D01*
X233095Y-6263952D01*
X223571Y-6254428D01*
X433095Y-6254428D02*
X442619Y-6263952D01*
X433095Y-6273476D01*
X423571Y-6263952D01*
X433095Y-6254428D01*
X433095Y-6273476D01*
X518809Y-6092524D02*
X528333Y-6083000D01*
X547381Y-6073476D01*
X595000Y-6073476D01*
X614048Y-6083000D01*
X623571Y-6092524D01*
X633095Y-6111571D01*
X633095Y-6130619D01*
X623571Y-6159190D01*
X509286Y-6273476D01*
X633095Y-6273476D01*
X756905Y-6073476D02*
X775952Y-6073476D01*
X795000Y-6083000D01*
X804524Y-6092524D01*
X814048Y-6111571D01*
X823571Y-6149667D01*
X823571Y-6197286D01*
X814048Y-6235381D01*
X804524Y-6254428D01*
X795000Y-6263952D01*
X775952Y-6273476D01*
X756905Y-6273476D01*
X737857Y-6263952D01*
X728333Y-6254428D01*
X718809Y-6235381D01*
X709286Y-6197286D01*
X709286Y-6149667D01*
X718809Y-6111571D01*
X728333Y-6092524D01*
X737857Y-6083000D01*
X756905Y-6073476D01*
X947381Y-6073476D02*
X966428Y-6073476D01*
X985476Y-6083000D01*
X995000Y-6092524D01*
X1004524Y-6111571D01*
X1014048Y-6149667D01*
X1014048Y-6197286D01*
X1004524Y-6235381D01*
X995000Y-6254428D01*
X985476Y-6263952D01*
X966428Y-6273476D01*
X947381Y-6273476D01*
X928333Y-6263952D01*
X918809Y-6254428D01*
X909286Y-6235381D01*
X899762Y-6197286D01*
X899762Y-6149667D01*
X909286Y-6111571D01*
X918809Y-6092524D01*
X928333Y-6083000D01*
X947381Y-6073476D01*
X1099762Y-6273476D02*
X1099762Y-6140143D01*
X1099762Y-6159190D02*
X1109286Y-6149667D01*
X1128333Y-6140143D01*
X1156905Y-6140143D01*
X1175952Y-6149667D01*
X1185476Y-6168714D01*
X1185476Y-6273476D01*
X1185476Y-6168714D02*
X1195000Y-6149667D01*
X1214048Y-6140143D01*
X1242619Y-6140143D01*
X1261667Y-6149667D01*
X1271190Y-6168714D01*
X1271190Y-6273476D01*
X1366429Y-6273476D02*
X1366429Y-6140143D01*
X1366429Y-6159190D02*
X1375952Y-6149667D01*
X1395000Y-6140143D01*
X1423571Y-6140143D01*
X1442619Y-6149667D01*
X1452143Y-6168714D01*
X1452143Y-6273476D01*
X1452143Y-6168714D02*
X1461667Y-6149667D01*
X1480714Y-6140143D01*
X1509286Y-6140143D01*
X1528333Y-6149667D01*
X1537857Y-6168714D01*
X1537857Y-6273476D01*
X1928333Y-6063952D02*
X1756905Y-6321095D01*
X2185476Y-6073476D02*
X2204524Y-6073476D01*
X2223571Y-6083000D01*
X2233095Y-6092524D01*
X2242619Y-6111571D01*
X2252143Y-6149667D01*
X2252143Y-6197286D01*
X2242619Y-6235381D01*
X2233095Y-6254428D01*
X2223571Y-6263952D01*
X2204524Y-6273476D01*
X2185476Y-6273476D01*
X2166429Y-6263952D01*
X2156905Y-6254428D01*
X2147381Y-6235381D01*
X2137857Y-6197286D01*
X2137857Y-6149667D01*
X2147381Y-6111571D01*
X2156905Y-6092524D01*
X2166429Y-6083000D01*
X2185476Y-6073476D01*
X2337857Y-6254428D02*
X2347381Y-6263952D01*
X2337857Y-6273476D01*
X2328333Y-6263952D01*
X2337857Y-6254428D01*
X2337857Y-6273476D01*
X2537857Y-6273476D02*
X2423571Y-6273476D01*
X2480714Y-6273476D02*
X2480714Y-6073476D01*
X2461667Y-6102048D01*
X2442619Y-6121095D01*
X2423571Y-6130619D01*
X2614048Y-6092524D02*
X2623571Y-6083000D01*
X2642619Y-6073476D01*
X2690238Y-6073476D01*
X2709286Y-6083000D01*
X2718810Y-6092524D01*
X2728333Y-6111571D01*
X2728333Y-6130619D01*
X2718810Y-6159190D01*
X2604524Y-6273476D01*
X2728333Y-6273476D01*
X2899762Y-6073476D02*
X2861667Y-6073476D01*
X2842619Y-6083000D01*
X2833095Y-6092524D01*
X2814048Y-6121095D01*
X2804524Y-6159190D01*
X2804524Y-6235381D01*
X2814048Y-6254428D01*
X2823571Y-6263952D01*
X2842619Y-6273476D01*
X2880714Y-6273476D01*
X2899762Y-6263952D01*
X2909286Y-6254428D01*
X2918809Y-6235381D01*
X2918809Y-6187762D01*
X2909286Y-6168714D01*
X2899762Y-6159190D01*
X2880714Y-6149667D01*
X2842619Y-6149667D01*
X2823571Y-6159190D01*
X2814048Y-6168714D01*
X2804524Y-6187762D01*
X3042619Y-6073476D02*
X3061667Y-6073476D01*
X3080714Y-6083000D01*
X3090238Y-6092524D01*
X3099762Y-6111571D01*
X3109286Y-6149667D01*
X3109286Y-6197286D01*
X3099762Y-6235381D01*
X3090238Y-6254428D01*
X3080714Y-6263952D01*
X3061667Y-6273476D01*
X3042619Y-6273476D01*
X3023571Y-6263952D01*
X3014048Y-6254428D01*
X3004524Y-6235381D01*
X2995000Y-6197286D01*
X2995000Y-6149667D01*
X3004524Y-6111571D01*
X3014048Y-6092524D01*
X3023571Y-6083000D01*
X3042619Y-6073476D01*
X3185476Y-6073476D02*
X3185476Y-6111571D01*
X3261667Y-6073476D02*
X3261667Y-6111571D01*
X3556905Y-6349667D02*
X3547381Y-6340143D01*
X3528333Y-6311571D01*
X3518809Y-6292524D01*
X3509286Y-6263952D01*
X3499762Y-6216333D01*
X3499762Y-6178238D01*
X3509286Y-6130619D01*
X3518809Y-6102048D01*
X3528333Y-6083000D01*
X3547381Y-6054428D01*
X3556905Y-6044905D01*
X3614048Y-6073476D02*
X3737857Y-6073476D01*
X3671190Y-6149667D01*
X3699762Y-6149667D01*
X3718809Y-6159190D01*
X3728333Y-6168714D01*
X3737857Y-6187762D01*
X3737857Y-6235381D01*
X3728333Y-6254428D01*
X3718809Y-6263952D01*
X3699762Y-6273476D01*
X3642619Y-6273476D01*
X3623571Y-6263952D01*
X3614048Y-6254428D01*
X3975952Y-6273476D02*
X3975952Y-6073476D01*
X4061667Y-6273476D02*
X4061667Y-6168714D01*
X4052143Y-6149667D01*
X4033095Y-6140143D01*
X4004524Y-6140143D01*
X3985476Y-6149667D01*
X3975952Y-6159190D01*
X4185476Y-6273476D02*
X4166428Y-6263952D01*
X4156905Y-6254428D01*
X4147381Y-6235381D01*
X4147381Y-6178238D01*
X4156905Y-6159190D01*
X4166428Y-6149667D01*
X4185476Y-6140143D01*
X4214048Y-6140143D01*
X4233095Y-6149667D01*
X4242619Y-6159190D01*
X4252143Y-6178238D01*
X4252143Y-6235381D01*
X4242619Y-6254428D01*
X4233095Y-6263952D01*
X4214048Y-6273476D01*
X4185476Y-6273476D01*
X4366429Y-6273476D02*
X4347381Y-6263952D01*
X4337857Y-6244905D01*
X4337857Y-6073476D01*
X4518810Y-6263952D02*
X4499762Y-6273476D01*
X4461667Y-6273476D01*
X4442619Y-6263952D01*
X4433095Y-6244905D01*
X4433095Y-6168714D01*
X4442619Y-6149667D01*
X4461667Y-6140143D01*
X4499762Y-6140143D01*
X4518810Y-6149667D01*
X4528333Y-6168714D01*
X4528333Y-6187762D01*
X4433095Y-6206809D01*
X4604524Y-6263952D02*
X4623571Y-6273476D01*
X4661667Y-6273476D01*
X4680714Y-6263952D01*
X4690238Y-6244905D01*
X4690238Y-6235381D01*
X4680714Y-6216333D01*
X4661667Y-6206809D01*
X4633095Y-6206809D01*
X4614048Y-6197286D01*
X4604524Y-6178238D01*
X4604524Y-6168714D01*
X4614048Y-6149667D01*
X4633095Y-6140143D01*
X4661667Y-6140143D01*
X4680714Y-6149667D01*
X4756905Y-6349667D02*
X4766429Y-6340143D01*
X4785476Y-6311571D01*
X4795000Y-6292524D01*
X4804524Y-6263952D01*
X4814048Y-6216333D01*
X4814048Y-6178238D01*
X4804524Y-6130619D01*
X4795000Y-6102048D01*
X4785476Y-6083000D01*
X4766429Y-6054428D01*
X4756905Y-6044905D01*
X5118810Y-6349667D02*
X5109286Y-6340143D01*
X5090238Y-6311571D01*
X5080714Y-6292524D01*
X5071190Y-6263952D01*
X5061667Y-6216333D01*
X5061667Y-6178238D01*
X5071190Y-6130619D01*
X5080714Y-6102048D01*
X5090238Y-6083000D01*
X5109286Y-6054428D01*
X5118810Y-6044905D01*
X5195000Y-6140143D02*
X5195000Y-6273476D01*
X5195000Y-6159190D02*
X5204524Y-6149667D01*
X5223571Y-6140143D01*
X5252143Y-6140143D01*
X5271190Y-6149667D01*
X5280714Y-6168714D01*
X5280714Y-6273476D01*
X5404524Y-6273476D02*
X5385476Y-6263952D01*
X5375952Y-6254428D01*
X5366429Y-6235381D01*
X5366429Y-6178238D01*
X5375952Y-6159190D01*
X5385476Y-6149667D01*
X5404524Y-6140143D01*
X5433095Y-6140143D01*
X5452143Y-6149667D01*
X5461667Y-6159190D01*
X5471190Y-6178238D01*
X5471190Y-6235381D01*
X5461667Y-6254428D01*
X5452143Y-6263952D01*
X5433095Y-6273476D01*
X5404524Y-6273476D01*
X5528333Y-6140143D02*
X5604524Y-6140143D01*
X5556905Y-6073476D02*
X5556905Y-6244905D01*
X5566429Y-6263952D01*
X5585476Y-6273476D01*
X5604524Y-6273476D01*
X5823571Y-6140143D02*
X5823571Y-6340143D01*
X5823571Y-6149667D02*
X5842619Y-6140143D01*
X5880714Y-6140143D01*
X5899762Y-6149667D01*
X5909286Y-6159190D01*
X5918809Y-6178238D01*
X5918809Y-6235381D01*
X5909286Y-6254428D01*
X5899762Y-6263952D01*
X5880714Y-6273476D01*
X5842619Y-6273476D01*
X5823571Y-6263952D01*
X6033095Y-6273476D02*
X6014048Y-6263952D01*
X6004524Y-6244905D01*
X6004524Y-6073476D01*
X6195000Y-6273476D02*
X6195000Y-6168714D01*
X6185476Y-6149667D01*
X6166428Y-6140143D01*
X6128333Y-6140143D01*
X6109286Y-6149667D01*
X6195000Y-6263952D02*
X6175952Y-6273476D01*
X6128333Y-6273476D01*
X6109286Y-6263952D01*
X6099762Y-6244905D01*
X6099762Y-6225857D01*
X6109286Y-6206809D01*
X6128333Y-6197286D01*
X6175952Y-6197286D01*
X6195000Y-6187762D01*
X6261667Y-6140143D02*
X6337857Y-6140143D01*
X6290238Y-6073476D02*
X6290238Y-6244905D01*
X6299762Y-6263952D01*
X6318809Y-6273476D01*
X6337857Y-6273476D01*
X6480714Y-6263952D02*
X6461667Y-6273476D01*
X6423571Y-6273476D01*
X6404524Y-6263952D01*
X6395000Y-6244905D01*
X6395000Y-6168714D01*
X6404524Y-6149667D01*
X6423571Y-6140143D01*
X6461667Y-6140143D01*
X6480714Y-6149667D01*
X6490238Y-6168714D01*
X6490238Y-6187762D01*
X6395000Y-6206809D01*
X6661667Y-6273476D02*
X6661667Y-6073476D01*
X6661667Y-6263952D02*
X6642619Y-6273476D01*
X6604524Y-6273476D01*
X6585476Y-6263952D01*
X6575952Y-6254428D01*
X6566428Y-6235381D01*
X6566428Y-6178238D01*
X6575952Y-6159190D01*
X6585476Y-6149667D01*
X6604524Y-6140143D01*
X6642619Y-6140143D01*
X6661667Y-6149667D01*
X6737857Y-6349667D02*
X6747381Y-6340143D01*
X6766428Y-6311571D01*
X6775952Y-6292524D01*
X6785476Y-6263952D01*
X6795000Y-6216333D01*
X6795000Y-6178238D01*
X6785476Y-6130619D01*
X6775952Y-6102048D01*
X6766428Y-6083000D01*
X6747381Y-6054428D01*
X6737857Y-6044905D01*
M02*
