G04 #@! TF.GenerationSoftware,KiCad,Pcbnew,(5.99.0-11444-g3c721c55de)*
G04 #@! TF.CreationDate,2021-10-03T12:01:57-03:00*
G04 #@! TF.ProjectId,d21lora,6432316c-6f72-4612-9e6b-696361645f70,rev?*
G04 #@! TF.SameCoordinates,Original*
G04 #@! TF.FileFunction,Soldermask,Top*
G04 #@! TF.FilePolarity,Negative*
%FSLAX46Y46*%
G04 Gerber Fmt 4.6, Leading zero omitted, Abs format (unit mm)*
G04 Created by KiCad (PCBNEW (5.99.0-11444-g3c721c55de)) date 2021-10-03 12:01:57*
%MOMM*%
%LPD*%
G01*
G04 APERTURE LIST*
G04 Aperture macros list*
%AMRoundRect*
0 Rectangle with rounded corners*
0 $1 Rounding radius*
0 $2 $3 $4 $5 $6 $7 $8 $9 X,Y pos of 4 corners*
0 Add a 4 corners polygon primitive as box body*
4,1,4,$2,$3,$4,$5,$6,$7,$8,$9,$2,$3,0*
0 Add four circle primitives for the rounded corners*
1,1,$1+$1,$2,$3*
1,1,$1+$1,$4,$5*
1,1,$1+$1,$6,$7*
1,1,$1+$1,$8,$9*
0 Add four rect primitives between the rounded corners*
20,1,$1+$1,$2,$3,$4,$5,0*
20,1,$1+$1,$4,$5,$6,$7,0*
20,1,$1+$1,$6,$7,$8,$9,0*
20,1,$1+$1,$8,$9,$2,$3,0*%
%AMFreePoly0*
4,1,20,0.000000,0.744959,0.073905,0.744508,0.209726,0.703889,0.328688,0.626782,0.421226,0.519385,0.479903,0.390333,0.500000,0.250000,0.500000,-0.250000,0.499851,-0.262216,0.476331,-0.402017,0.414519,-0.529596,0.319384,-0.634700,0.198574,-0.708877,0.061801,-0.746166,0.000000,-0.745033,0.000000,-0.750000,-0.500000,-0.750000,-0.500000,0.750000,0.000000,0.750000,0.000000,0.744959,
0.000000,0.744959,$1*%
%AMFreePoly1*
4,1,22,0.500000,-0.750000,0.000000,-0.750000,0.000000,-0.745033,-0.079941,-0.743568,-0.215256,-0.701293,-0.333266,-0.622738,-0.424486,-0.514219,-0.481581,-0.384460,-0.499164,-0.250000,-0.500000,-0.250000,-0.500000,0.250000,-0.499164,0.250000,-0.499963,0.256109,-0.478152,0.396186,-0.417904,0.524511,-0.324060,0.630769,-0.204165,0.706417,-0.067858,0.745374,0.000000,0.744959,0.000000,0.750000,
0.500000,0.750000,0.500000,-0.750000,0.500000,-0.750000,$1*%
G04 Aperture macros list end*
%ADD10FreePoly0,0.000000*%
%ADD11FreePoly1,0.000000*%
%ADD12C,3.200000*%
%ADD13RoundRect,0.225000X-0.250000X0.225000X-0.250000X-0.225000X0.250000X-0.225000X0.250000X0.225000X0*%
%ADD14FreePoly1,180.000000*%
%ADD15FreePoly0,180.000000*%
%ADD16RoundRect,0.225000X0.225000X0.250000X-0.225000X0.250000X-0.225000X-0.250000X0.225000X-0.250000X0*%
%ADD17R,2.180000X1.600000*%
%ADD18RoundRect,0.200000X0.275000X-0.200000X0.275000X0.200000X-0.275000X0.200000X-0.275000X-0.200000X0*%
%ADD19RoundRect,0.225000X-0.225000X-0.250000X0.225000X-0.250000X0.225000X0.250000X-0.225000X0.250000X0*%
%ADD20RoundRect,0.200000X-0.200000X-0.275000X0.200000X-0.275000X0.200000X0.275000X-0.200000X0.275000X0*%
%ADD21RoundRect,0.150000X-0.150000X0.512500X-0.150000X-0.512500X0.150000X-0.512500X0.150000X0.512500X0*%
%ADD22O,1.600000X2.000000*%
%ADD23R,1.000000X1.800000*%
%ADD24R,1.250000X0.350000*%
%ADD25R,0.350000X1.250000*%
%ADD26C,1.000000*%
%ADD27RoundRect,0.200000X0.200000X0.275000X-0.200000X0.275000X-0.200000X-0.275000X0.200000X-0.275000X0*%
%ADD28RoundRect,0.250000X0.600000X0.600000X-0.600000X0.600000X-0.600000X-0.600000X0.600000X-0.600000X0*%
%ADD29C,1.700000*%
%ADD30R,1.600000X0.700000*%
%ADD31R,1.400000X1.200000*%
%ADD32R,2.200000X1.200000*%
%ADD33R,1.400000X1.600000*%
%ADD34RoundRect,0.150000X-0.825000X-0.150000X0.825000X-0.150000X0.825000X0.150000X-0.825000X0.150000X0*%
%ADD35RoundRect,0.200000X-0.275000X0.200000X-0.275000X-0.200000X0.275000X-0.200000X0.275000X0.200000X0*%
%ADD36R,1.700000X1.700000*%
%ADD37R,2.000000X1.000000*%
%ADD38C,0.650000*%
%ADD39R,0.600000X1.450000*%
%ADD40R,0.300000X1.450000*%
G04 APERTURE END LIST*
D10*
X30607000Y-30429200D03*
D11*
X29307000Y-30429200D03*
D12*
X3500000Y-3500000D03*
D13*
X50660458Y-27983544D03*
X50660458Y-26433544D03*
D14*
X38164942Y-36574800D03*
D15*
X36864942Y-36574800D03*
D16*
X41947800Y-12522200D03*
X43497800Y-12522200D03*
D17*
X31757400Y-2697225D03*
X40937400Y-2697225D03*
D18*
X18388742Y-28103400D03*
X18388742Y-26453400D03*
D19*
X56629000Y-8255000D03*
X58179000Y-8255000D03*
D12*
X3500000Y-46500000D03*
D19*
X42151600Y-18719800D03*
X40601600Y-18719800D03*
D20*
X42201600Y-17170400D03*
X40551600Y-17170400D03*
D16*
X58179000Y-14528800D03*
X56629000Y-14528800D03*
D13*
X49111058Y-27983544D03*
X49111058Y-26433544D03*
D21*
X58354000Y-10267100D03*
X57404000Y-10267100D03*
X56454000Y-10267100D03*
X56454000Y-12542100D03*
X58354000Y-12542100D03*
D22*
X10785742Y-23710400D03*
X13325742Y-23710400D03*
X15865742Y-23710400D03*
X18405742Y-23710400D03*
D23*
X47516258Y-27487944D03*
X45016258Y-27487944D03*
D19*
X48565258Y-29544974D03*
X47015258Y-29544974D03*
D24*
X45451800Y-21215800D03*
X45451800Y-20715800D03*
X45451800Y-20215800D03*
X45451800Y-19715800D03*
X45451800Y-19215800D03*
X45451800Y-18715800D03*
X45451800Y-18215800D03*
X45451800Y-17715800D03*
X45451800Y-17215800D03*
X45451800Y-16715800D03*
X45451800Y-16215800D03*
X45451800Y-15715800D03*
D25*
X46576800Y-14590800D03*
X47076800Y-14590800D03*
X47576800Y-14590800D03*
X48076800Y-14590800D03*
X48576800Y-14590800D03*
X49076800Y-14590800D03*
X49576800Y-14590800D03*
X50076800Y-14590800D03*
X50576800Y-14590800D03*
X51076800Y-14590800D03*
X51576800Y-14590800D03*
X52076800Y-14590800D03*
D24*
X53201800Y-15715800D03*
X53201800Y-16215800D03*
X53201800Y-16715800D03*
X53201800Y-17215800D03*
X53201800Y-17715800D03*
X53201800Y-18215800D03*
X53201800Y-18715800D03*
X53201800Y-19215800D03*
X53201800Y-19715800D03*
X53201800Y-20215800D03*
X53201800Y-20715800D03*
X53201800Y-21215800D03*
D25*
X52076800Y-22340800D03*
X51576800Y-22340800D03*
X51076800Y-22340800D03*
X50576800Y-22340800D03*
X50076800Y-22340800D03*
X49576800Y-22340800D03*
X49076800Y-22340800D03*
X48576800Y-22340800D03*
X48076800Y-22340800D03*
X47576800Y-22340800D03*
X47076800Y-22340800D03*
X46576800Y-22340800D03*
D26*
X6000000Y-7000000D03*
D27*
X34656942Y-28599200D03*
X33006942Y-28599200D03*
D28*
X36007700Y-21742400D03*
D29*
X33467700Y-21742400D03*
X36007700Y-19202400D03*
X33467700Y-19202400D03*
X36007700Y-16662400D03*
X33467700Y-16662400D03*
X36007700Y-14122400D03*
X33467700Y-14122400D03*
X36007700Y-11582400D03*
X33467700Y-11582400D03*
D18*
X46075600Y-12243545D03*
X46075600Y-10593545D03*
D30*
X44508800Y-38033600D03*
X44508800Y-39133600D03*
X44508800Y-40233600D03*
X44508800Y-41333600D03*
X44508800Y-42433600D03*
X44508800Y-43533600D03*
X44508800Y-44633600D03*
X44508800Y-45733600D03*
X44508800Y-46833600D03*
D31*
X45008800Y-47983600D03*
D32*
X54608800Y-47983600D03*
X54608800Y-32483600D03*
D33*
X45008800Y-33383600D03*
D26*
X55008800Y-37183600D03*
X55008800Y-45163600D03*
D12*
X56500000Y-3500000D03*
D27*
X34910942Y-36574800D03*
X33260942Y-36574800D03*
D19*
X56909000Y-19227800D03*
X55359000Y-19227800D03*
D16*
X40601600Y-20269200D03*
X42151600Y-20269200D03*
X43967258Y-29544974D03*
X45517258Y-29544974D03*
D26*
X54000000Y-7000000D03*
X54000000Y-30000000D03*
D18*
X50089241Y-12243545D03*
X50089241Y-10593545D03*
D34*
X33007942Y-30428000D03*
X33007942Y-31698000D03*
X33007942Y-32968000D03*
X33007942Y-34238000D03*
X37957942Y-34238000D03*
X37957942Y-32968000D03*
X37957942Y-31698000D03*
X37957942Y-30428000D03*
D35*
X15848742Y-26453400D03*
X15848742Y-28103400D03*
D36*
X8839200Y-3171874D03*
D26*
X7000000Y-44000000D03*
D37*
X27989800Y-17182274D03*
X27989800Y-15182274D03*
X27989800Y-13182274D03*
X27989800Y-11182274D03*
X27989800Y-9182274D03*
X27989800Y-7182274D03*
X27989800Y-5182274D03*
X27989800Y-3182274D03*
X11989800Y-3182274D03*
X11989800Y-5182274D03*
X11989800Y-7182274D03*
X11989800Y-9182274D03*
X11989800Y-11182274D03*
X11989800Y-13182274D03*
X11989800Y-15182274D03*
X11989800Y-17182274D03*
D38*
X44938200Y-6300800D03*
X50718200Y-6300800D03*
D39*
X51053200Y-7745800D03*
X50278200Y-7745800D03*
D40*
X49578200Y-7745800D03*
X49078200Y-7745800D03*
X48578200Y-7745800D03*
X48078200Y-7745800D03*
X47578200Y-7745800D03*
X47078200Y-7745800D03*
X46578200Y-7745800D03*
X46078200Y-7745800D03*
D39*
X45378200Y-7745800D03*
X44603200Y-7745800D03*
M02*
